<svg width="30" height="30" xmlns="http://www.w3.org/2000/svg" xmlns:xlink="http://www.w3.org/1999/xlink" xml:space="preserve" overflow="hidden"><defs><clipPath id="clip0"><rect x="9" y="151" width="30" height="30"/></clipPath></defs><g clip-path="url(#clip0)" transform="translate(-9 -151)"><path d="M32.75 157.875 32.75 169.125 15.25 169.125 15.25 157.875ZM35.25 169.75 34.625 169.75 34.625 156.938 35.25 156.938C35.5952 156.938 35.875 156.658 35.875 156.312 35.875 155.967 35.5952 155.688 35.25 155.688L24.625 155.688 24.625 155.062C24.625 154.717 24.3452 154.438 24 154.438 23.6548 154.438 23.375 154.717 23.375 155.062L23.375 155.688 12.75 155.688C12.4048 155.688 12.125 155.967 12.125 156.312 12.125 156.658 12.4048 156.938 12.75 156.938L13.375 156.938 13.375 169.75 12.75 169.75C12.4048 169.75 12.125 170.03 12.125 170.375 12.125 170.72 12.4048 171 12.75 171L22.2938 171 17.4813 175.812C17.237 176.059 17.2391 176.457 17.4859 176.702 17.7327 176.946 18.1308 176.944 18.375 176.697L23.375 171.697 23.375 177.25C23.375 177.595 23.6548 177.875 24 177.875 24.3452 177.875 24.625 177.595 24.625 177.25L24.625 171.688 29.625 176.688C29.8692 176.932 30.2652 176.932 30.5094 176.688 30.7536 176.443 30.7536 176.047 30.5094 175.803L25.7062 171 35.25 171C35.5952 171 35.875 170.72 35.875 170.375 35.875 170.03 35.5952 169.75 35.25 169.75Z" fill="#FFFFFF"/><path d="M26.5 159.125 29 159.125 29 167.875 26.5 167.875Z" fill="#FFFFFF"/><path d="M22.75 161.938 25.25 161.938 25.25 167.875 22.75 167.875Z" fill="#FFFFFF"/><path d="M19 164.125 21.5 164.125 21.5 167.875 19 167.875Z" fill="#FFFFFF"/></g></svg>