<svg width="17" height="30" xmlns="http://www.w3.org/2000/svg" xmlns:xlink="http://www.w3.org/1999/xlink" xml:space="preserve" overflow="hidden"><defs><clipPath id="clip0"><rect x="15" y="205" width="17" height="30"/></clipPath></defs><g clip-path="url(#clip0)" transform="translate(-15 -205)"><path d="M1.86823 15.0521C2.35229 15.5362 3.13716 15.5362 3.62127 15.0522 3.6213 15.0521 3.62132 15.0521 3.62135 15.0521L5.84375 12.8297C6.1325 12.5407 6.26034 12.128 6.18552 11.7265L6.95937 10.9437C9.2967 12.7334 12.6423 12.2894 14.4319 9.95208 16.2216 7.61476 15.7776 4.2692 13.4403 2.47954 11.1029 0.689901 7.75735 1.13389 5.96771 3.47121 4.50357 5.38342 4.50357 8.03987 5.96771 9.95208L5.185 10.7348C4.78341 10.66 4.37074 10.7878 4.08177 11.0766L1.86823 13.2901C1.38167 13.7717 1.37766 14.5566 1.85927 15.0431 1.86224 15.0461 1.86522 15.0491 1.86823 15.0521ZM5.93229 6.72917C5.93229 4.38196 7.83509 2.47917 10.1823 2.47917 12.5295 2.47917 14.4323 4.38196 14.4323 6.72917 14.4323 9.07637 12.5295 10.9792 10.1823 10.9792 7.8379 10.9724 5.93909 9.07355 5.93229 6.72917Z" fill="#FFFFFF" transform="matrix(1 0 0 1.76471 15 205)"/><path d="M12.9271 7.86958 12.1178 7.0674C12.0895 7.04583 12.0558 7.03237 12.0204 7.02844L11.521 7.02844C11.5033 6.92219 11.4839 6.81417 11.4608 6.70969L12.109 6.58573C12.1888 6.57092 12.2517 6.50935 12.2683 6.4299L12.5393 5.20625C12.5663 5.09708 12.4998 4.98665 12.3906 4.95959 12.3888 4.95915 12.387 4.95872 12.3852 4.95833 12.2775 4.93351 12.1701 5.00067 12.1453 5.10836 12.145 5.1097 12.1447 5.11105 12.1444 5.1124L11.9018 6.20677 11.3493 6.31125C11.3183 6.20921 11.2742 6.11161 11.2182 6.02083L9.14635 6.02083C9.08995 6.11327 9.04589 6.21269 9.01531 6.31656L8.46281 6.21208 8.22198 5.11771C8.18943 5.01004 8.07578 4.94916 7.96811 4.98171 7.87219 5.01071 7.81161 5.10521 7.82531 5.20448L8.09625 6.42812C8.11371 6.50712 8.17626 6.56829 8.25562 6.58396L8.90375 6.70792C8.88073 6.8124 8.86125 6.92042 8.84531 7.02667L8.33885 7.02667C8.30282 7.03019 8.26848 7.04368 8.23969 7.06563L7.4375 7.86958C7.34802 7.93657 7.32978 8.06344 7.39677 8.15292 7.46376 8.2424 7.59062 8.26064 7.6801 8.19365L8.4451 7.42333 8.79927 7.42333C8.79927 7.48354 8.79927 7.53667 8.79927 7.58271 8.79985 7.68825 8.81234 7.7934 8.83646 7.89615L8.31938 8.02542C8.2538 8.04155 8.20064 8.0894 8.17771 8.15292L7.75448 9.31104C7.71634 9.41616 7.7701 9.53236 7.8749 9.57135 7.89717 9.57888 7.92044 9.58306 7.94396 9.58375 8.02922 9.58389 8.10555 9.53089 8.13521 9.45094L8.52125 8.38844 8.98875 8.27156C9.19491 8.62174 9.54584 8.8624 9.94677 8.92854L10.0123 8.90729 10.0123 7.4375C10.0123 7.3397 10.0916 7.26042 10.1894 7.26042 10.2872 7.26042 10.3665 7.3397 10.3665 7.4375L10.3665 8.91083 10.432 8.93208C10.8333 8.86688 11.1846 8.62598 11.39 8.2751L11.8575 8.39198 12.2453 9.45448C12.2739 9.53448 12.3498 9.58773 12.4348 9.58729 12.4583 9.5866 12.4816 9.58242 12.5039 9.5749 12.6087 9.5359 12.6624 9.4197 12.6243 9.31458L12.194 8.14583C12.171 8.08231 12.1179 8.03447 12.0523 8.01833L11.5352 7.88906C11.5593 7.7863 11.5718 7.68117 11.5724 7.57562 11.5724 7.52958 11.5724 7.47646 11.5724 7.41625L11.9266 7.41625 12.6916 8.18656C12.7652 8.27023 12.8928 8.27833 12.9765 8.20464 13.0602 8.13096 13.0683 8.00341 12.9946 7.91973 12.9758 7.89847 12.9528 7.88138 12.9271 7.86958Z" fill="#FFFFFF" transform="matrix(1 0 0 1.76471 15 205)"/><path d="M11.2342 3.79667C11.2994 3.76414 11.3268 3.68565 11.2961 3.61958 11.2624 3.55582 11.1847 3.52941 11.1191 3.55938 10.9485 3.64616 10.8042 3.77701 10.7011 3.93833 10.6263 4.05662 10.5668 4.18397 10.5241 4.31729 10.309 4.23227 10.0697 4.23227 9.85469 4.31729 9.81346 4.1834 9.75386 4.05586 9.6776 3.93833 9.57498 3.77666 9.43059 3.64572 9.25969 3.55938 9.19408 3.52844 9.11575 3.55507 9.0826 3.61958 9.05066 3.68514 9.07754 3.76417 9.14281 3.79667 9.26477 3.86134 9.36787 3.95652 9.44208 4.07292 9.5155 4.18737 9.56992 4.31295 9.60323 4.44479 9.28779 4.69846 9.10897 5.08495 9.11979 5.48958 9.12034 5.5488 9.12447 5.60795 9.13219 5.66667L11.2324 5.66667C11.2401 5.60795 11.2442 5.5488 11.2448 5.48958 11.2531 5.08746 11.0746 4.7042 10.7614 4.45187 10.7947 4.32004 10.8491 4.19445 10.9225 4.08 10.9992 3.95937 11.1068 3.86151 11.2342 3.79667Z" fill="#FFFFFF" transform="matrix(1 0 0 1.76471 15 205)"/></g></svg>