<svg width="1934" height="849" xmlns="http://www.w3.org/2000/svg" xmlns:xlink="http://www.w3.org/1999/xlink" xml:space="preserve" overflow="hidden"><defs><filter id="fx0" x="-10%" y="-10%" width="120%" height="120%" filterUnits="userSpaceOnUse" primitiveUnits="userSpaceOnUse"><feComponentTransfer color-interpolation-filters="sRGB"><feFuncR type="discrete" tableValues="0 0"/><feFuncG type="discrete" tableValues="0 0"/><feFuncB type="discrete" tableValues="0 0"/><feFuncA type="linear" slope="0.631373" intercept="0"/></feComponentTransfer><feGaussianBlur stdDeviation="6.875 6.875"/></filter><filter id="fx1" x="-10%" y="-10%" width="120%" height="120%" filterUnits="userSpaceOnUse" primitiveUnits="userSpaceOnUse"><feComponentTransfer color-interpolation-filters="sRGB"><feFuncR type="discrete" tableValues="0 0"/><feFuncG type="discrete" tableValues="0 0"/><feFuncB type="discrete" tableValues="0 0"/><feFuncA type="linear" slope="0.631373" intercept="0"/></feComponentTransfer><feGaussianBlur stdDeviation="6.875 6.875"/></filter><filter id="fx2" x="-10%" y="-10%" width="120%" height="120%" filterUnits="userSpaceOnUse" primitiveUnits="userSpaceOnUse"><feComponentTransfer color-interpolation-filters="sRGB"><feFuncR type="discrete" tableValues="0 0"/><feFuncG type="discrete" tableValues="0 0"/><feFuncB type="discrete" tableValues="0 0"/><feFuncA type="linear" slope="0.631373" intercept="0"/></feComponentTransfer><feGaussianBlur stdDeviation="6.875 6.875"/></filter><filter id="fx3" x="-10%" y="-10%" width="120%" height="120%" filterUnits="userSpaceOnUse" primitiveUnits="userSpaceOnUse"><feComponentTransfer color-interpolation-filters="sRGB"><feFuncR type="discrete" tableValues="0 0"/><feFuncG type="discrete" tableValues="0 0"/><feFuncB type="discrete" tableValues="0 0"/><feFuncA type="linear" slope="0.631373" intercept="0"/></feComponentTransfer><feGaussianBlur stdDeviation="6.875 6.875"/></filter><filter id="fx4" x="-10%" y="-10%" width="120%" height="120%" filterUnits="userSpaceOnUse" primitiveUnits="userSpaceOnUse"><feComponentTransfer color-interpolation-filters="sRGB"><feFuncR type="discrete" tableValues="0 0"/><feFuncG type="discrete" tableValues="0 0"/><feFuncB type="discrete" tableValues="0 0"/><feFuncA type="linear" slope="0.631373" intercept="0"/></feComponentTransfer><feGaussianBlur stdDeviation="6.875 6.875"/></filter><filter id="fx5" x="-10%" y="-10%" width="120%" height="120%" filterUnits="userSpaceOnUse" primitiveUnits="userSpaceOnUse"><feComponentTransfer color-interpolation-filters="sRGB"><feFuncR type="discrete" tableValues="0 0"/><feFuncG type="discrete" tableValues="0 0"/><feFuncB type="discrete" tableValues="0 0"/><feFuncA type="linear" slope="0.631373" intercept="0"/></feComponentTransfer><feGaussianBlur stdDeviation="6.875 6.875"/></filter><clipPath id="clip6"><rect x="2003" y="1465" width="1934" height="849"/></clipPath><clipPath id="clip7"><rect x="2003" y="1464" width="1934" height="850"/></clipPath><clipPath id="clip8"><rect x="-3" y="-3" width="376" height="472"/></clipPath><clipPath id="clip9"><rect x="0" y="0" width="368" height="468"/></clipPath><clipPath id="clip10"><rect x="2003" y="1464" width="1934" height="850"/></clipPath><clipPath id="clip11"><rect x="-3" y="-3" width="549" height="376"/></clipPath><clipPath id="clip12"><rect x="0" y="0" width="543" height="360"/></clipPath><clipPath id="clip13"><rect x="2003" y="1464" width="1934" height="850"/></clipPath><clipPath id="clip14"><rect x="-3" y="-3" width="358" height="313"/></clipPath><clipPath id="clip15"><rect x="0" y="0" width="352" height="306"/></clipPath><clipPath id="clip16"><rect x="2003" y="1464" width="1934" height="850"/></clipPath><clipPath id="clip17"><rect x="-3" y="-3" width="372" height="413"/></clipPath><clipPath id="clip18"><rect x="0" y="0" width="368" height="406"/></clipPath><clipPath id="clip19"><rect x="2003" y="1464" width="1934" height="850"/></clipPath><clipPath id="clip20"><rect x="-3" y="-3" width="240" height="358"/></clipPath><clipPath id="clip21"><rect x="0" y="0" width="235" height="352"/></clipPath><clipPath id="clip22"><rect x="2003" y="1464" width="1934" height="850"/></clipPath><clipPath id="clip23"><rect x="-3" y="-3" width="151" height="372"/></clipPath><clipPath id="clip24"><rect x="0" y="0" width="144" height="368"/></clipPath><clipPath id="clip25"><rect x="2003" y="1464" width="1934" height="850"/></clipPath><linearGradient x1="3190.93" y1="1665.78" x2="3190.93" y2="2090.08" gradientUnits="userSpaceOnUse" spreadMethod="reflect" id="fill26"><stop offset="0" stop-color="#6083CB"/><stop offset="0.5" stop-color="#3E70CA"/><stop offset="1" stop-color="#2E61BA"/></linearGradient><clipPath id="clip27"><rect x="2003" y="1464" width="1934" height="850"/></clipPath><linearGradient x1="3087.74" y1="1989.92" x2="3087.74" y2="2314.14" gradientUnits="userSpaceOnUse" spreadMethod="reflect" id="fill28"><stop offset="0" stop-color="#F18C55"/><stop offset="0.5" stop-color="#F67B28"/><stop offset="1" stop-color="#E56B17"/></linearGradient><clipPath id="clip29"><rect x="2003" y="1464" width="1934" height="850"/></clipPath><linearGradient x1="2874.73" y1="1989.92" x2="2874.73" y2="2252.15" gradientUnits="userSpaceOnUse" spreadMethod="reflect" id="fill30"><stop offset="0" stop-color="#AFAFAF"/><stop offset="0.5" stop-color="#A5A5A5"/><stop offset="1" stop-color="#929292"/></linearGradient><clipPath id="clip31"><rect x="2003" y="1464" width="1934" height="850"/></clipPath><linearGradient x1="2866.79" y1="1727.69" x2="2866.79" y2="2090.08" gradientUnits="userSpaceOnUse" spreadMethod="reflect" id="fill32"><stop offset="0" stop-color="#FFC746"/><stop offset="0.5" stop-color="#FFC600"/><stop offset="1" stop-color="#E5B600"/></linearGradient><clipPath id="clip33"><rect x="2003" y="1464" width="1934" height="850"/></clipPath><linearGradient x1="2933.61" y1="1681.65" x2="2933.61" y2="1989.92" gradientUnits="userSpaceOnUse" spreadMethod="reflect" id="fill34"><stop offset="0" stop-color="#71A6DB"/><stop offset="0.5" stop-color="#559BDB"/><stop offset="1" stop-color="#438AC9"/></linearGradient><clipPath id="clip35"><rect x="2003" y="1464" width="1934" height="850"/></clipPath><linearGradient x1="2978.79" y1="1665.78" x2="2978.79" y2="1989.92" gradientUnits="userSpaceOnUse" spreadMethod="reflect" id="fill36"><stop offset="0" stop-color="#81B861"/><stop offset="0.5" stop-color="#6FB242"/><stop offset="1" stop-color="#61A235"/></linearGradient><clipPath id="clip37"><rect x="2003" y="1464" width="1934" height="850"/></clipPath><clipPath id="clip38"><rect x="2003" y="1464" width="1934" height="850"/></clipPath><clipPath id="clip39"><rect x="2003" y="1464" width="1934" height="850"/></clipPath><clipPath id="clip40"><rect x="2003" y="1464" width="1934" height="850"/></clipPath><clipPath id="clip41"><rect x="2003" y="1464" width="1934" height="850"/></clipPath><clipPath id="clip42"><rect x="2003" y="1464" width="1934" height="850"/></clipPath><clipPath id="clip43"><rect x="2003" y="1464" width="1934" height="850"/></clipPath><linearGradient x1="2182" y1="1608" x2="2182" y2="1638" gradientUnits="userSpaceOnUse" spreadMethod="reflect" id="fill44"><stop offset="0" stop-color="#6083CB"/><stop offset="0.5" stop-color="#3E70CA"/><stop offset="1" stop-color="#2E61BA"/></linearGradient><clipPath id="clip45"><rect x="2003" y="1464" width="1934" height="850"/></clipPath><clipPath id="clip46"><rect x="2003" y="1464" width="1934" height="850"/></clipPath><linearGradient x1="2430" y1="1608" x2="2430" y2="1638" gradientUnits="userSpaceOnUse" spreadMethod="reflect" id="fill47"><stop offset="0" stop-color="#F18C55"/><stop offset="0.5" stop-color="#F67B28"/><stop offset="1" stop-color="#E56B17"/></linearGradient><clipPath id="clip48"><rect x="2003" y="1464" width="1934" height="850"/></clipPath><clipPath id="clip49"><rect x="2003" y="1464" width="1934" height="850"/></clipPath><linearGradient x1="2713" y1="1608" x2="2713" y2="1638" gradientUnits="userSpaceOnUse" spreadMethod="reflect" id="fill50"><stop offset="0" stop-color="#AFAFAF"/><stop offset="0.5" stop-color="#A5A5A5"/><stop offset="1" stop-color="#929292"/></linearGradient><clipPath id="clip51"><rect x="2003" y="1464" width="1934" height="850"/></clipPath><clipPath id="clip52"><rect x="2003" y="1464" width="1934" height="850"/></clipPath><linearGradient x1="3055" y1="1608" x2="3055" y2="1638" gradientUnits="userSpaceOnUse" spreadMethod="reflect" id="fill53"><stop offset="0" stop-color="#FFC746"/><stop offset="0.5" stop-color="#FFC600"/><stop offset="1" stop-color="#E5B600"/></linearGradient><clipPath id="clip54"><rect x="2003" y="1464" width="1934" height="850"/></clipPath><clipPath id="clip55"><rect x="2003" y="1464" width="1934" height="850"/></clipPath><linearGradient x1="3347" y1="1608" x2="3347" y2="1638" gradientUnits="userSpaceOnUse" spreadMethod="reflect" id="fill56"><stop offset="0" stop-color="#71A6DB"/><stop offset="0.5" stop-color="#559BDB"/><stop offset="1" stop-color="#438AC9"/></linearGradient><clipPath id="clip57"><rect x="2003" y="1464" width="1934" height="850"/></clipPath><clipPath id="clip58"><rect x="2003" y="1464" width="1934" height="850"/></clipPath><linearGradient x1="3655" y1="1608" x2="3655" y2="1638" gradientUnits="userSpaceOnUse" spreadMethod="reflect" id="fill59"><stop offset="0" stop-color="#81B861"/><stop offset="0.5" stop-color="#6FB242"/><stop offset="1" stop-color="#61A235"/></linearGradient><clipPath id="clip60"><rect x="2003" y="1464" width="1934" height="850"/></clipPath></defs><g clip-path="url(#clip6)" transform="translate(-2003 -1465)"><g clip-path="url(#clip7)"><g clip-path="url(#clip8)" filter="url(#fx0)" transform="translate(3007 1651)"><g clip-path="url(#clip9)"><path d="M21.8666 21.658C200.881 21.658 346 166.778 346 345.792 346 379.805 340.647 413.606 330.136 445.954L21.8666 345.792Z" fill="#FF0000" fill-rule="evenodd"/></g></g></g><g clip-path="url(#clip10)"><g clip-path="url(#clip11)" filter="url(#fx1)" transform="translate(2816 1975)"><g clip-path="url(#clip12)"><path d="M521.136 121.955C465.818 292.207 282.956 385.38 112.704 330.061 80.3553 319.551 49.8628 304.014 22.3456 284.022L212.867 21.7917Z" fill="#FF0000" fill-rule="evenodd"/></g></g></g><g clip-path="url(#clip13)"><g clip-path="url(#clip14)" filter="url(#fx2)" transform="translate(2699 1975)"><g clip-path="url(#clip15)"><path d="M139.346 284.022C83.9684 243.788 42.7497 187.055 21.5974 121.955L329.867 21.7917Z" fill="#FF0000" fill-rule="evenodd"/></g></g></g><g clip-path="url(#clip16)"><g clip-path="url(#clip17)" filter="url(#fx3)" transform="translate(2683 1713)"><g clip-path="url(#clip18)"><path d="M37.5972 383.955C-5.79599 250.404 41.7408 104.101 155.346 21.5623L345.867 283.792Z" fill="#FF0000" fill-rule="evenodd"/></g></g></g><g clip-path="url(#clip19)"><g clip-path="url(#clip20)" filter="url(#fx4)" transform="translate(2816 1667)"><g clip-path="url(#clip21)"><path d="M22.3459 67.5617C49.8631 47.5692 80.3556 32.0325 112.704 21.5219L212.867 329.792Z" fill="#FF0000" fill-rule="evenodd"/></g></g></g><g clip-path="url(#clip22)"><g clip-path="url(#clip23)" filter="url(#fx5)" transform="translate(2907 1651)"><g clip-path="url(#clip24)"><path d="M21.7035 37.5222C54.0519 27.0116 87.8531 21.658 121.866 21.658L121.867 345.792Z" fill="#FF0000" fill-rule="evenodd"/></g></g></g><g clip-path="url(#clip25)"><path d="M3028.87 1665.78C3207.88 1665.78 3353 1810.9 3353 1989.92 3353 2023.93 3347.65 2057.73 3337.14 2090.08L3028.87 1989.92Z" fill="url(#fill26)" fill-rule="evenodd"/></g><g clip-path="url(#clip27)"><path d="M3337.14 2090.08C3281.82 2260.33 3098.96 2353.5 2928.7 2298.19 2896.36 2287.68 2865.86 2272.14 2838.35 2252.15L3028.87 1989.92Z" fill="url(#fill28)" fill-rule="evenodd"/></g><g clip-path="url(#clip29)"><path d="M2838.35 2252.15C2782.97 2211.91 2741.75 2155.18 2720.6 2090.08L3028.87 1989.92Z" fill="url(#fill30)" fill-rule="evenodd"/></g><g clip-path="url(#clip31)"><path d="M2720.6 2090.08C2677.2 1956.53 2724.74 1810.23 2838.35 1727.69L3028.87 1989.92Z" fill="url(#fill32)" fill-rule="evenodd"/></g><g clip-path="url(#clip33)"><path d="M2838.35 1727.69C2865.86 1707.69 2896.36 1692.16 2928.7 1681.65L3028.87 1989.92Z" fill="url(#fill34)" fill-rule="evenodd"/></g><g clip-path="url(#clip35)"><path d="M2928.7 1681.65C2961.05 1671.14 2994.85 1665.78 3028.87 1665.78L3028.87 1989.92Z" fill="url(#fill36)" fill-rule="evenodd"/></g><g clip-path="url(#clip37)"><text fill="#404040" font-family="Calibri,Calibri_MSFontService,sans-serif" font-weight="400" font-size="55" transform="matrix(1 0 0 1 3206.19 1847)">30</text></g><g clip-path="url(#clip38)"><text fill="#404040" font-family="Calibri,Calibri_MSFontService,sans-serif" font-weight="400" font-size="55" transform="matrix(1 0 0 1 3082.44 2263)">30</text></g><g clip-path="url(#clip39)"><text fill="#404040" font-family="Calibri,Calibri_MSFontService,sans-serif" font-weight="400" font-size="55" transform="matrix(1 0 0 1 2783.37 2163)">10</text></g><g clip-path="url(#clip40)"><text fill="#404040" font-family="Calibri,Calibri_MSFontService,sans-serif" font-weight="400" font-size="55" transform="matrix(1 0 0 1 2745.56 1929)">20</text></g><g clip-path="url(#clip41)"><text fill="#404040" font-family="Calibri,Calibri_MSFontService,sans-serif" font-weight="400" font-size="55" transform="matrix(1 0 0 1 2893.37 1768)">5</text></g><g clip-path="url(#clip42)"><text fill="#404040" font-family="Calibri,Calibri_MSFontService,sans-serif" font-weight="400" font-size="55" transform="matrix(1 0 0 1 2975.87 1740)">5</text></g><g clip-path="url(#clip43)"><rect x="2167" y="1608" width="30" height="29.9999" fill="url(#fill44)"/></g><g clip-path="url(#clip45)"><text fill="#595959" font-family="Calibri,Calibri_MSFontService,sans-serif" font-weight="400" font-size="55" transform="matrix(1 0 0 1 2210.78 1638)">Sci-Fi</text></g><g clip-path="url(#clip46)"><rect x="2415" y="1608" width="30.0002" height="29.9999" fill="url(#fill47)"/></g><g clip-path="url(#clip48)"><text fill="#595959" font-family="Calibri,Calibri_MSFontService,sans-serif" font-weight="400" font-size="55" transform="matrix(1 0 0 1 2458.67 1638)">Novels</text></g><g clip-path="url(#clip49)"><rect x="2698" y="1608" width="30" height="29.9999" fill="url(#fill50)"/></g><g clip-path="url(#clip51)"><text fill="#595959" font-family="Calibri,Calibri_MSFontService,sans-serif" font-weight="400" font-size="55" transform="matrix(1 0 0 1 2741.42 1638)">Technical</text></g><g clip-path="url(#clip52)"><rect x="3040" y="1608" width="30" height="29.9999" fill="url(#fill53)"/></g><g clip-path="url(#clip54)"><text fill="#595959" font-family="Calibri,Calibri_MSFontService,sans-serif" font-weight="400" font-size="55" transform="matrix(1 0 0 1 3083.27 1638)">History</text></g><g clip-path="url(#clip55)"><rect x="3332" y="1608" width="30" height="29.9999" fill="url(#fill56)"/></g><g clip-path="url(#clip57)"><text fill="#595959" font-family="Calibri,Calibri_MSFontService,sans-serif" font-weight="400" font-size="55" transform="matrix(1 0 0 1 3375.09 1638)">General</text></g><g clip-path="url(#clip58)"><rect x="3640" y="1608" width="30" height="29.9999" fill="url(#fill59)"/></g><g clip-path="url(#clip60)"><text fill="#595959" font-family="Calibri,Calibri_MSFontService,sans-serif" font-weight="400" font-size="55" transform="matrix(1 0 0 1 3683.44 1638)">Others</text></g></g></svg>