<svg width="30" height="30" xmlns="http://www.w3.org/2000/svg" xmlns:xlink="http://www.w3.org/1999/xlink" xml:space="preserve" overflow="hidden"><defs><clipPath id="clip0"><rect x="9" y="259" width="30" height="30"/></clipPath></defs><g clip-path="url(#clip0)" transform="translate(-9 -259)"><path d="M25.75 275.656C26.8125 276.5 27.8125 277.969 28.5625 279.625L19.4375 279.625C20.2188 277.969 21.1875 276.469 22.25 275.656 22.75 275.25 23.0625 274.656 23.0625 274 23.0625 273.344 22.75 272.75 22.25 272.344 20.125 270.688 18.2812 266.438 17.9688 263.375L30.0625 263.375C29.7188 266.438 27.9062 270.688 25.7812 272.344 25.25 272.75 24.9375 273.344 24.9375 274 24.9375 274.656 25.25 275.25 25.75 275.656ZM31.9062 263.375 32.75 263.375 32.75 261.5 15.25 261.5 15.25 263.375 16.0625 263.375C16.4062 266.844 18.4062 271.906 21.3125 274 18.4062 276.094 16.375 281.156 16.0625 284.625L15.25 284.625 15.25 286.5 32.75 286.5 32.75 284.625 31.9062 284.625C31.5938 281.156 29.5625 276.094 26.6562 274 29.5625 271.906 31.5938 266.844 31.9062 263.375Z" fill="#FFFFFF"/></g></svg>